<svg width="17" height="17" viewBox="0 0 17 17" fill="none" xmlns="http://www.w3.org/2000/svg">
<path d="M8.5 0.265625C3.95117 0.265625 0.265625 3.95117 0.265625 8.5C0.265625 13.0488 3.95117 16.7344 8.5 16.7344C13.0488 16.7344 16.7344 13.0488 16.7344 8.5C16.7344 3.95117 13.0488 0.265625 8.5 0.265625ZM8.5 15.1406C4.83105 15.1406 1.85938 12.1689 1.85938 8.5C1.85938 4.83105 4.83105 1.85938 8.5 1.85938C12.1689 1.85938 15.1406 4.83105 15.1406 8.5C15.1406 12.1689 12.1689 15.1406 8.5 15.1406ZM10.552 11.6742L7.73301 9.62559C7.63008 9.54922 7.57031 9.42969 7.57031 9.30352V3.85156C7.57031 3.63242 7.74961 3.45312 7.96875 3.45312H9.03125C9.25039 3.45312 9.42969 3.63242 9.42969 3.85156V8.55645L11.6477 10.1701C11.827 10.2996 11.8635 10.5486 11.734 10.7279L11.1098 11.5879C10.9803 11.7639 10.7312 11.8037 10.552 11.6742Z" fill="#1F1F1F"/>
</svg>
