<svg width="28" height="32" viewBox="0 0 28 32" fill="none" xmlns="http://www.w3.org/2000/svg">
<path d="M6.2675 28H0.4625V9.30625H6.2675V28ZM3.36188 6.75625C1.50563 6.75625 0 5.21875 0 3.3625C1.32862e-08 2.47087 0.354197 1.61577 0.98467 0.985295C1.61514 0.354822 2.47025 0.00062561 3.36188 0.00062561C4.2535 0.00062561 5.10861 0.354822 5.73908 0.985295C6.36955 1.61577 6.72375 2.47087 6.72375 3.3625C6.72375 5.21875 5.2175 6.75625 3.36188 6.75625ZM27.9937 28H22.2013V18.9C22.2013 16.7312 22.1575 13.95 19.1831 13.95C16.165 13.95 15.7025 16.3062 15.7025 18.7437V28H9.90375V9.30625H15.4712V11.8562H15.5525C16.3275 10.3875 18.2206 8.8375 21.045 8.8375C26.92 8.8375 28 12.7062 28 17.7312V28H27.9937Z" fill="#1F1F1F"/>
</svg>
