<svg width="28" height="25" viewBox="0 0 28 25" fill="none" xmlns="http://www.w3.org/2000/svg">
<path d="M26.7194 6.03182C26.414 4.88216 25.5144 3.97673 24.3722 3.66946C22.3019 3.11111 14 3.11111 14 3.11111C14 3.11111 5.69818 3.11111 3.62778 3.66946C2.48557 3.97678 1.58597 4.88216 1.28064 6.03182C0.725891 8.11563 0.725891 12.4633 0.725891 12.4633C0.725891 12.4633 0.725891 16.811 1.28064 18.8948C1.58597 20.0445 2.48557 20.9122 3.62778 21.2194C5.69818 21.7778 14 21.7778 14 21.7778C14 21.7778 22.3018 21.7778 24.3722 21.2194C25.5144 20.9122 26.414 20.0445 26.7194 18.8948C27.2741 16.811 27.2741 12.4633 27.2741 12.4633C27.2741 12.4633 27.2741 8.11563 26.7194 6.03182ZM11.2848 16.4107V8.51594L18.2235 12.4634L11.2848 16.4107Z" fill="#1F1F1F"/>
</svg>
