<svg width="28" height="28" viewBox="0 0 28 28" fill="none" xmlns="http://www.w3.org/2000/svg">
<path d="M25.1218 8.29697C25.1396 8.54569 25.1396 8.79446 25.1396 9.04318C25.1396 16.6294 19.3655 25.3706 8.81218 25.3706C5.5609 25.3706 2.54062 24.4289 0 22.7945C0.461945 22.8477 0.906062 22.8655 1.38578 22.8655C4.06848 22.8655 6.53805 21.9594 8.51014 20.4138C5.9873 20.3604 3.87308 18.7082 3.14464 16.434C3.5 16.4873 3.8553 16.5228 4.22844 16.5228C4.74365 16.5228 5.25891 16.4518 5.73858 16.3274C3.10915 15.7944 1.13701 13.4848 1.13701 10.6955V10.6244C1.90094 11.0508 2.78934 11.3173 3.73089 11.3528C2.1852 10.3223 1.17255 8.56346 1.17255 6.5736C1.17255 5.50763 1.45677 4.53048 1.95426 3.67768C4.77914 7.15991 9.02535 9.43398 13.7867 9.68275C13.6979 9.25635 13.6446 8.81224 13.6446 8.36806C13.6446 5.2056 16.203 2.62949 19.3832 2.62949C21.0354 2.62949 22.5278 3.32238 23.5761 4.44167C24.873 4.19295 26.1166 3.71323 27.2182 3.05588C26.7917 4.3884 25.8857 5.50769 24.6953 6.2183C25.8502 6.09399 26.9695 5.77413 27.9999 5.33001C27.2183 6.46702 26.2411 7.47967 25.1218 8.29697Z" fill="#1F1F1F"/>
</svg>
